<mxfile host="app.diagrams.net" modified="2024-05-22T21:58:26.078Z" agent="Mozilla/5.0 (X11; Linux x86_64) AppleWebKit/537.36 (KHTML, like Gecko) Chrome/124.0.0.0 Safari/537.36" version="24.4.6" etag="CknCGaD7kCNikxKDEZW5" type="github">
  <diagram name="Page-1" id="rthDZQF6M8ZVeFTr6TXh">
    <mxGraphModel>
      <root>
        <mxCell id="0" />
        <mxCell id="1" parent="0" />
      </root>
    </mxGraphModel>
  </diagram>
</mxfile>
